<?xml version="1.0" encoding="utf-8" ?>
<svg xmlns="http://www.w3.org/2000/svg" xmlns:xlink="http://www.w3.org/1999/xlink" width="40" height="40">
	<clipPath id="clip_0">
			<rect x="-170" y="-601" width="1280" height="780" clip-rule="evenodd"/>
		</clipPath>
	<defs>
		<clipPath id="clip_0">
			<rect x="-231" y="-601" width="1280" height="780" clip-rule="evenodd"/>
		</clipPath>
	</defs>
	<g clip-path="url(#clip_0)">
		<use fill="rgb(255,255,255)" stroke="none" transform="translate(-21 -5)" xlink:href="#img_0"/>
	</g>
	<defs>
		<clipPath id="clip_1">
			<rect x="-231" y="-601" width="1280" height="780" clip-rule="evenodd"/>
		</clipPath>
		
	</defs>
	<g clip-path="url(#clip_1)">
		<path fill="url(#gradient_0)" stroke="none" d="M20 40C31.0457 40 40 31.0457 40 20C40 8.9543 31.0457 0 20 0C8.9543 0 0 8.9543 0 20C0 31.0457 8.9543 40 20 40Z"/>
	</g>
	<defs>
		<clipPath id="clip_2">
			<rect x="-231" y="-601" width="1280" height="780" clip-rule="evenodd"/>
		</clipPath>
	</defs>
	<g clip-path="url(#clip_2)">
		<path fill="rgb(255,255,255)" stroke="none" transform="translate(11 11)" d="M13.5177 1.20713C14.8967 2.01185 15.9883 3.10345 16.7932 4.4824C17.5976 5.86118 18 7.36718 17.9998 9C17.9998 10.6326 17.5976 12.1386 16.793 13.5176C15.9883 14.8964 14.8965 15.9883 13.5177 16.7929C12.1388 17.5976 10.6328 18 8.99996 18C7.36731 18 5.86153 17.5976 4.4824 16.7929C3.10345 15.9881 2.01181 14.8964 1.20708 13.5176C0.402361 12.1385 0 10.6328 0 9C0 7.36735 0.402361 5.86135 1.20708 4.4824C2.01203 3.10345 3.10362 2.01167 4.48258 1.20713C5.86153 0.402361 7.36731 0 9.00018 0C10.6332 0 12.1386 0.402361 13.5177 1.20713ZM9.00018 1.31251C10.9375 1.31251 12.6289 1.95314 14.0743 3.23427L13.9277 3.43923C13.8691 3.52145 13.7227 3.67939 13.4884 3.91388C13.2541 4.1482 12.9981 4.371 12.7209 4.58198C12.4433 4.79292 12.0665 5.03308 11.5898 5.30259C11.1133 5.57211 10.6055 5.80866 10.0663 6.01173C9.16805 4.35535 8.2071 2.86311 7.18362 1.53518C7.80096 1.38669 8.40639 1.31251 9.00018 1.31251ZM5.71888 2.05065C4.64069 2.55844 3.72676 3.28507 2.97671 4.23024C2.22679 5.17559 1.72691 6.23814 1.47678 7.4178C3.8361 7.4178 6.20329 7.10539 8.57821 6.48036C7.6406 4.81629 6.68756 3.33965 5.71888 2.05065ZM16.5704 8.89458C16.4923 8.87898 16.3946 8.86131 16.2774 8.84189C16.1603 8.82251 16.0175 8.799 15.8496 8.77153C15.6817 8.74424 15.4939 8.7188 15.2871 8.69546C15.08 8.67195 14.8594 8.65051 14.6248 8.63108C14.3905 8.61135 14.1405 8.59593 13.875 8.58406C13.609 8.57237 13.3397 8.56657 13.0661 8.56657C12.793 8.56657 12.5056 8.57444 12.205 8.5899C11.9043 8.60533 11.6133 8.63297 11.3322 8.67195C11.3085 8.63297 11.2793 8.56846 11.2441 8.4785C11.2091 8.38872 11.1835 8.32021 11.1684 8.27337C11.0197 7.94532 10.8477 7.5742 10.6522 7.16033C11.1914 6.94126 11.7052 6.68946 12.1937 6.4043C12.6819 6.119 13.0721 5.86531 13.3653 5.64264C13.6583 5.41984 13.9357 5.18346 14.1973 4.93354C14.4591 4.68358 14.6289 4.50969 14.7072 4.41204C14.7855 4.31418 14.8596 4.21855 14.9298 4.12499L14.9416 4.11317C16.0822 5.50377 16.6645 7.10522 16.6876 8.91796L16.5704 8.89458ZM1.8282 11.7716C1.48433 10.8927 1.31251 9.96886 1.31251 9C1.31251 8.89049 1.31646 8.8084 1.3242 8.75382C4.15246 8.75382 6.78143 8.39079 9.21111 7.66398C9.46125 8.14839 9.66827 8.58199 9.83236 8.9648C9.80059 8.98044 9.75032 8.99793 9.67992 9.01749C9.60939 9.03709 9.55872 9.05062 9.52717 9.05853L9.09369 9.2108C8.79671 9.32032 8.40793 9.50783 7.92761 9.77339C7.44716 10.0392 6.93748 10.3554 6.39832 10.7226C5.85929 11.09 5.30259 11.5763 4.7284 12.1819C4.15413 12.7874 3.67183 13.4376 3.28112 14.1328C2.65626 13.4376 2.17185 12.6503 1.8282 11.7716ZM15.4692 13.1543C14.891 14.0489 14.1682 14.7892 13.3013 15.3751C12.9806 13.5782 12.4809 11.746 11.801 9.8789C13.3557 9.6365 14.9533 9.74997 16.5941 10.2186C16.4221 11.281 16.047 12.2599 15.4692 13.1543ZM4.10166 14.9298C5.53915 16.1016 7.17197 16.6876 9.00018 16.6876C10.0315 16.6875 11.0312 16.4844 12.0001 16.0781C11.672 14.1951 11.125 12.2497 10.3595 10.242L10.3358 10.242L10.3127 10.2538C10.1877 10.3007 10.0197 10.3652 9.80868 10.4473C9.59752 10.529 9.2032 10.7207 8.6251 11.0213C8.04688 11.3225 7.51189 11.6428 7.01953 11.9822C6.52739 12.3222 6.01569 12.7697 5.48435 13.3243C4.9531 13.8787 4.55073 14.4571 4.27744 15.0588L4.10166 14.9298Z" fill-rule="evenodd"/>
	</g>
</svg>
