<?xml version="1.0" encoding="utf-8" ?>
<svg xmlns="http://www.w3.org/2000/svg" xmlns:xlink="http://www.w3.org/1999/xlink" width="41" height="40">
	<defs>
		<clipPath id="clip_0">
			<rect x="-296" y="-601" width="1280" height="780" clip-rule="evenodd"/>
		</clipPath>
	</defs>
	<g clip-path="url(#clip_0)">
		<path fill="none" stroke="rgb(255,255,255)" stroke-width="1" stroke-miterlimit="4" transform="translate(0.933319 0)" d="M20 40C31.0457 40 40 31.0457 40 20C40 8.9543 31.0457 0 20 0C8.9543 0 0 8.9543 0 20C0 31.0457 8.9543 40 20 40Z"/>
	</g>
	<defs>
		<clipPath id="clip_1">
			<rect x="12" y="11.043518" width="17.84914" height="17.805677" clip-rule="evenodd"/>
		</clipPath>
	</defs>
	<g clip-path="url(#clip_1)">
		<path fill="rgb(255,255,255)" stroke="none" transform="translate(12 11.0435)" d="M4.92558 0L12.9234 0C15.6395 0 17.8493 2.20429 17.8491 4.91381L17.8491 12.8919C17.8491 15.6014 15.6395 17.8057 12.9234 17.8057L4.92558 17.8057C2.20967 17.8057 0 15.6014 0 12.8919L0 4.91381C0 2.20429 2.20967 0 4.92558 0ZM12.9234 16.2259C14.7662 16.2259 16.2656 14.7303 16.2656 12.8919L16.2656 4.91381C16.2656 3.07546 14.7662 1.5797 12.9234 1.5797L4.92558 1.5797C3.08292 1.5797 1.5836 3.07546 1.5836 4.91381L1.5836 12.8919C1.5836 14.7303 3.08292 16.2259 4.92558 16.2259L12.9234 16.2259Z" fill-rule="evenodd"/>
	</g>
	<defs>
		<clipPath id="clip_2">
			<rect x="-296" y="-601" width="1280" height="780" clip-rule="evenodd"/>
		</clipPath>
	</defs>
	<g clip-path="url(#clip_2)">
		<path fill="rgb(255,255,255)" stroke="none" transform="translate(16.3252 15.3585)" d="M4.59927 7.59594C2.93671 7.59594 1.58377 6.2466 1.58377 4.58791C1.58377 2.92922 2.93654 1.57974 4.59927 1.57974C6.26218 1.57974 7.61495 2.92922 7.61495 4.58791C7.61495 6.2466 6.26201 7.59594 4.59927 7.59594M4.59927 0C2.0633 0 0 2.0581 0 4.58808C0 7.11789 2.0633 9.17582 4.59927 9.17582C7.13542 9.17582 9.19854 7.11789 9.19854 4.58808C9.19854 2.0581 7.13542 0 4.59927 0"/>
	</g>
	<defs>
		<clipPath id="clip_3">
			<rect x="-296" y="-601" width="1280" height="780" clip-rule="evenodd"/>
		</clipPath>
	</defs>
	<g clip-path="url(#clip_3)">
		<path fill="rgb(255,255,255)" stroke="none" transform="translate(24.5554 14.0189)" d="M1.16142 0C0.856205 0 0.556438 0.123284 0.340948 0.339119C0.124413 0.55391 0 0.853122 0 1.15859C0 1.46307 0.124587 1.76193 0.340948 1.97794C0.556438 2.19273 0.856205 2.31706 1.16142 2.31706C1.46746 2.31706 1.7664 2.19273 1.98276 1.97794C2.19908 1.76193 2.32267 1.46289 2.32267 1.15859C2.32267 0.853122 2.19908 0.55391 1.98276 0.339119C1.76741 0.123284 1.46746 0 1.16142 0"/>
	</g>
</svg>
