<?xml version="1.0" encoding="utf-8" ?>
<svg xmlns="http://www.w3.org/2000/svg" xmlns:xlink="http://www.w3.org/1999/xlink" width="40" height="40">
	<defs>
		<clipPath id="clip_0">
			<rect x="-108" y="-601" width="1280" height="780" clip-rule="evenodd"/>
		</clipPath>
	</defs>
	<g clip-path="url(#clip_0)">
		<path fill="rgb(255,255,255)" stroke="none" transform="translate(9.02859 11.0228)" d="M21.7529 2.10872C20.9497 2.46267 20.0921 2.70363 19.1868 2.81254C20.1084 2.25847 20.8177 1.38313 21.1512 0.340336C20.2881 0.844034 19.3311 1.2116 18.3128 1.4158C17.4987 0.544538 16.3389 0 15.051 0C12.5843 0 10.5831 2.00118 10.5831 4.46521C10.5831 4.81916 10.6239 5.1595 10.6988 5.48622C6.98506 5.30924 3.69197 3.52588 1.48795 0.83042C1.10133 1.48523 0.883513 2.24758 0.883513 3.078C0.883513 4.62993 1.67309 5.99536 2.87108 6.79719C2.13867 6.77405 1.44847 6.57257 0.846756 6.23904L0.846756 6.2935C0.846756 8.45803 2.38508 10.2659 4.43118 10.677C4.05545 10.7778 3.66066 10.8322 3.25361 10.8322C2.96773 10.8322 2.69546 10.805 2.42319 10.7533C2.99496 12.5285 4.64218 13.8204 6.60252 13.8571C5.07782 15.0551 3.14471 15.7685 1.06185 15.7685C0.707899 15.7685 0.35395 15.748 0 15.7072C1.98756 16.9732 4.32908 17.7138 6.86118 17.7138C15.0837 17.7138 19.5761 10.9071 19.5761 5.01247C19.5761 4.82188 19.5761 4.63129 19.5625 4.44071C20.4338 3.81449 21.1961 3.02491 21.7951 2.12642L21.7529 2.10872Z"/>
	</g>
	<defs>
		<clipPath id="clip_1">
			<rect x="-108" y="-601" width="1280" height="780" clip-rule="evenodd"/>
		</clipPath>
	</defs>
	<g clip-path="url(#clip_1)">
		<path fill="none" stroke="rgb(255,255,255)" stroke-width="1" stroke-miterlimit="4" d="M20 40C31.0457 40 40 31.0457 40 20C40 8.9543 31.0457 0 20 0C8.9543 0 0 8.9543 0 20C0 31.0457 8.9543 40 20 40Z"/>
	</g>
</svg>
